<svg width="18" height="18" viewBox="0 0 18 18" fill="none" xmlns="http://www.w3.org/2000/svg">
<path d="M17.737 14.1775V0.60674C17.737 0.445822 17.6731 0.291496 17.5593 0.17771C17.4455 0.0639242 17.2912 0 17.1303 0H0.60674C0.445822 0 0.291496 0.0639242 0.17771 0.17771C0.0639242 0.291496 2.36099e-09 0.445822 2.36099e-09 0.60674V17.3932C-1.10558e-05 17.5186 0.0388227 17.6409 0.111161 17.7433C0.183499 17.8457 0.285789 17.9232 0.403963 17.9651C0.522137 18.007 0.650391 18.0113 0.771087 17.9773C0.891783 17.9434 0.998994 17.8728 1.07797 17.7755L3.50493 14.7842H17.1303C17.2912 14.7842 17.4455 14.7203 17.5593 14.6065C17.6731 14.4927 17.737 14.3384 17.737 14.1775ZM16.5235 13.5707H3.20561C3.11531 13.5707 3.02614 13.5909 2.94462 13.6297C2.86309 13.6686 2.79126 13.7251 2.73437 13.7952L1.21348 15.6741V1.21348H16.5235V13.5707Z" fill="black"/>
<path d="M9.4752 6.20288H8.26172V11.3197H9.4752V6.20288Z" fill="black"/>
<path d="M9.4752 3.57373H8.26172V5.05013H9.4752V3.57373Z" fill="black"/>
</svg>
