<svg width="21" height="15" viewBox="0 0 21 15" fill="none" xmlns="http://www.w3.org/2000/svg">
<path d="M18.7165 2.14802H7.79179C7.87766 2.10287 7.953 2.05994 8.01726 2.02144C8.27347 1.86771 8.47566 1.52342 8.51915 1.16611C8.55931 0.840382 8.46624 0.545673 8.25712 0.336551C7.76243 -0.15814 6.96888 -0.0581489 6.51767 0.317993C6.22933 0.558137 5.86898 1.03815 5.55017 1.58879C5.23109 1.03759 4.87074 0.558137 4.58267 0.317993C4.13119 -0.0581489 3.33792 -0.15814 2.84322 0.336551C2.63383 0.545673 2.54076 0.840382 2.58092 1.1675C2.62496 1.52342 2.82688 1.86771 3.08309 2.02199C3.14707 2.06049 3.22158 2.10342 3.30828 2.14857H1.78017C1.30829 2.14908 0.85588 2.33672 0.522161 2.67034C0.188442 3.00395 0.000659791 3.45631 0 3.92818L0 13.2198C0.000513213 13.6918 0.188231 14.1443 0.521965 14.478C0.8557 14.8118 1.30819 14.9995 1.78017 15H18.7165C19.1885 14.9995 19.641 14.8118 19.9747 14.478C20.3085 14.1443 20.4962 13.6918 20.4967 13.2198V3.92818C20.4962 3.45621 20.3085 3.00372 19.9747 2.66998C19.641 2.33625 19.1885 2.14853 18.7165 2.14802ZM6.90766 0.786094C7.0498 0.671023 7.22696 0.607902 7.40983 0.607163C7.48626 0.605033 7.56234 0.618114 7.63367 0.645646C7.70499 0.673177 7.77013 0.71461 7.82531 0.767536C7.91976 0.86171 7.9253 0.995769 7.91366 1.09161C7.88929 1.28965 7.77517 1.45528 7.70288 1.49905C7.17025 1.81401 6.57873 2.0165 5.96482 2.094C6.30052 1.47052 6.67223 0.982197 6.90766 0.786094ZM3.27393 0.767536C3.32912 0.714635 3.39427 0.673219 3.46559 0.645689C3.53691 0.618159 3.61299 0.605064 3.68941 0.607163C3.87219 0.607965 4.04923 0.671083 4.1913 0.786094C4.42701 0.982197 4.79844 1.47052 5.13304 2.094C4.51892 2.01662 3.9272 1.81413 3.39442 1.49905C3.32379 1.45528 3.21023 1.28965 3.1853 1.09161C3.17394 0.997154 3.17976 0.86171 3.27393 0.767536ZM1.78017 2.75738H4.90259C4.43172 3.42491 3.69716 4.16334 3.68774 4.17276L3.69051 4.17525L0.609361 7.20932V3.92818C0.609655 3.61776 0.733101 3.32013 0.952606 3.10062C1.17211 2.88112 1.46974 2.75767 1.78017 2.75738ZM0.609361 13.2198V8.06464L4.11928 4.60873L3.80408 4.28854L4.11901 4.60347C4.16277 4.5597 5.05908 3.65951 5.55017 2.8834C6.04126 3.65896 6.9373 4.5597 6.98106 4.60347L7.41205 4.17276C7.40291 4.16334 6.66752 3.42491 6.19748 2.75738H18.7171C19.0274 2.75782 19.3249 2.88133 19.5443 3.10082C19.7637 3.32031 19.887 3.61785 19.8873 3.92818V8.89115L14.4092 14.369L14.4308 14.3906H1.78017C1.46974 14.3903 1.17211 14.2669 0.952606 14.0474C0.733101 13.8279 0.609655 13.5303 0.609361 13.2198ZM18.7165 14.3906H15.2495L19.8873 9.75285V13.2198C19.887 13.5303 19.7636 13.8279 19.5441 14.0474C19.3246 14.2669 19.027 14.3903 18.7165 14.3906Z" fill="black"/>
</svg>
