<svg width="23" height="23" viewBox="0 0 23 23" fill="none" xmlns="http://www.w3.org/2000/svg">
<path d="M5.14416 12.4814C6.58221 12.4814 7.74634 11.3173 7.74634 9.87927C7.74634 8.44123 6.58221 7.2771 5.14416 7.2771C3.70612 7.2771 2.54199 8.44123 2.54199 9.87927C2.54199 11.3173 3.70612 12.4814 5.14416 12.4814ZM5.14416 7.73362C6.33112 7.73362 7.28982 8.69232 7.28982 9.87927C7.28982 11.0662 6.33112 12.0249 5.14416 12.0249C3.95721 12.0249 2.99851 11.0662 2.99851 9.87927C2.99851 8.69232 3.95721 7.73362 5.14416 7.73362Z" fill="black" stroke="black" stroke-width="0.2"/>
<path d="M20.8941 13.714C20.8941 13.6912 20.8712 13.6912 20.8941 13.714L19.8212 13.1433C19.6158 13.0064 19.3647 13.0292 19.1821 13.2118C18.3832 13.8509 17.2191 13.8509 16.3973 13.2118C16.2147 13.052 15.9636 13.0292 15.7582 13.1433L14.7082 13.714C14.7082 13.714 14.6854 13.714 14.6854 13.7368C14.2745 14.0336 13.9549 14.4216 13.7952 14.8781L13.4984 14.6955C13.293 14.5586 13.0419 14.5814 12.8593 14.7412C12.0376 15.3575 10.8963 15.3575 10.0745 14.7412C9.8919 14.5814 9.64082 14.5586 9.43538 14.6955L9.16147 14.8553C8.97886 14.3988 8.68212 13.9879 8.27125 13.714C8.27125 13.714 8.24843 13.714 8.24843 13.6912L7.19843 13.1205C6.99299 12.9836 6.74191 13.0064 6.5593 13.189C5.76039 13.8281 4.59626 13.8281 3.77452 13.189C3.59191 13.0292 3.34082 13.0064 3.13539 13.1205L2.08539 13.6912C2.08539 13.6912 2.06256 13.6912 2.06256 13.714C1.26365 14.2618 0.875607 15.2433 1.03539 16.202L1.76582 19.489C1.87995 20.0368 2.38213 20.4249 2.95278 20.4249H7.42669C7.6093 20.4249 7.76908 20.3792 7.92886 20.3107L8.08864 21.064C8.20278 21.6118 8.70495 21.9999 9.2756 21.9999H13.7495C14.3202 21.9999 14.7995 21.6118 14.9365 21.064L15.0962 20.3107C15.256 20.3792 15.4158 20.4249 15.5984 20.4249H20.0723C20.643 20.4249 21.1223 20.0368 21.2593 19.489L21.9897 16.202C22.1039 15.2205 21.693 14.2618 20.8941 13.714ZM7.38104 19.9683H2.90713C2.54191 19.9683 2.24517 19.7172 2.17669 19.3749L1.44626 16.1107C1.3093 15.3346 1.62887 14.5357 2.29082 14.102L3.34082 13.5314C3.34082 13.5314 3.36365 13.5314 3.36365 13.5086C3.38647 13.4857 3.43213 13.4857 3.45495 13.5086C3.45495 13.5086 3.47778 13.5086 3.47778 13.5314C4.4593 14.3303 5.87452 14.3303 6.85604 13.5314C6.85604 13.5314 6.87886 13.5314 6.87886 13.5086C6.90169 13.4857 6.92452 13.4857 6.97017 13.5086C6.97017 13.5086 6.99299 13.5086 6.99299 13.5314L8.04299 14.102C8.38538 14.3531 8.63647 14.6955 8.79625 15.0836L8.43104 15.289C8.43104 15.289 8.40821 15.289 8.40821 15.3118C7.6093 15.8596 7.22125 16.8412 7.38104 17.7999L7.83756 19.877C7.65495 19.9227 7.51799 19.9683 7.38104 19.9683ZM14.4343 20.9499C14.3658 21.2922 14.0462 21.5433 13.7039 21.5433H9.22995C8.86473 21.5433 8.56799 21.2922 8.49951 20.9499L7.76908 17.6857C7.63212 16.9096 7.95169 16.1107 8.61364 15.677L9.66364 15.1064C9.66364 15.1064 9.68647 15.1064 9.68647 15.0836C9.7093 15.0607 9.75495 15.0607 9.77777 15.0836L9.8006 15.1064C10.7821 15.8596 12.1745 15.8596 13.156 15.1064L13.1789 15.0836C13.2017 15.0607 13.2245 15.0607 13.2702 15.0836C13.2702 15.0836 13.293 15.0836 13.293 15.1064L14.343 15.677C14.9821 16.1336 15.3017 16.9325 15.1876 17.6857L14.4343 20.9499ZM21.4875 16.0879L20.7571 19.3749C20.6886 19.7172 20.3691 19.9683 20.0267 19.9683H15.5528C15.4158 19.9683 15.2789 19.9227 15.1419 19.8542L15.5984 17.777C15.7582 16.8183 15.3473 15.8596 14.5712 15.289C14.5712 15.289 14.5484 15.289 14.5484 15.2662L14.1832 15.0607C14.3202 14.6727 14.5941 14.3303 14.9365 14.0792L15.9865 13.5086C15.9865 13.5086 16.0093 13.5086 16.0093 13.4857C16.0321 13.4629 16.0778 13.4629 16.1006 13.4857C16.1006 13.4857 16.1234 13.4857 16.1234 13.5086C17.1049 14.3075 18.5202 14.3075 19.5017 13.5086C19.5017 13.5086 19.5245 13.5086 19.5245 13.4857C19.5473 13.4629 19.5702 13.4629 19.6158 13.4857C19.6158 13.4857 19.6386 13.4857 19.6386 13.5086L20.6886 14.0792C21.2821 14.5357 21.6245 15.3346 21.4875 16.0879Z" fill="black"/>
<path d="M20.8941 13.714C20.8712 13.6912 20.8941 13.6912 20.8941 13.714ZM20.8941 13.714L19.8212 13.1433C19.6158 13.0064 19.3647 13.0292 19.1821 13.2118C18.3832 13.8509 17.2191 13.8509 16.3973 13.2118C16.2147 13.052 15.9636 13.0292 15.7582 13.1433L14.7082 13.714C14.7082 13.714 14.6854 13.714 14.6854 13.7368C14.2745 14.0336 13.9549 14.4216 13.7952 14.8781L13.4984 14.6955C13.293 14.5586 13.0419 14.5814 12.8593 14.7412C12.0376 15.3575 10.8963 15.3575 10.0745 14.7412C9.8919 14.5814 9.64082 14.5586 9.43538 14.6955L9.16147 14.8553C8.97886 14.3988 8.68212 13.9879 8.27125 13.714C8.27125 13.714 8.24843 13.714 8.24843 13.6912L7.19843 13.1205C6.99299 12.9836 6.74191 13.0064 6.5593 13.189C5.76039 13.8281 4.59626 13.8281 3.77452 13.189C3.59191 13.0292 3.34082 13.0064 3.13539 13.1205L2.08539 13.6912C2.08539 13.6912 2.06256 13.6912 2.06256 13.714C1.26365 14.2618 0.875607 15.2433 1.03539 16.202L1.76582 19.489C1.87995 20.0368 2.38213 20.4249 2.95278 20.4249H7.42669C7.6093 20.4249 7.76908 20.3792 7.92886 20.3107L8.08864 21.064C8.20278 21.6118 8.70495 21.9999 9.2756 21.9999H13.7495C14.3202 21.9999 14.7995 21.6118 14.9365 21.064L15.0962 20.3107C15.256 20.3792 15.4158 20.4249 15.5984 20.4249H20.0723C20.643 20.4249 21.1223 20.0368 21.2593 19.489L21.9897 16.202C22.1039 15.2205 21.693 14.2618 20.8941 13.714ZM7.38104 19.9683H2.90713C2.54191 19.9683 2.24517 19.7172 2.17669 19.3749L1.44626 16.1107C1.3093 15.3346 1.62887 14.5357 2.29082 14.102L3.34082 13.5314C3.34082 13.5314 3.36365 13.5314 3.36365 13.5086C3.38647 13.4857 3.43213 13.4857 3.45495 13.5086C3.45495 13.5086 3.47778 13.5086 3.47778 13.5314C4.4593 14.3303 5.87452 14.3303 6.85604 13.5314C6.85604 13.5314 6.87886 13.5314 6.87886 13.5086C6.90169 13.4857 6.92452 13.4857 6.97017 13.5086C6.97017 13.5086 6.99299 13.5086 6.99299 13.5314L8.04299 14.102C8.38538 14.3531 8.63647 14.6955 8.79625 15.0836L8.43104 15.289C8.43104 15.289 8.40821 15.289 8.40821 15.3118C7.6093 15.8596 7.22125 16.8412 7.38104 17.7999L7.83756 19.877C7.65495 19.9227 7.51799 19.9683 7.38104 19.9683ZM14.4343 20.9499C14.3658 21.2922 14.0462 21.5433 13.7039 21.5433H9.22995C8.86473 21.5433 8.56799 21.2922 8.49951 20.9499L7.76908 17.6857C7.63212 16.9096 7.95169 16.1107 8.61364 15.677L9.66364 15.1064C9.66364 15.1064 9.68647 15.1064 9.68647 15.0836C9.7093 15.0607 9.75495 15.0607 9.77777 15.0836L9.8006 15.1064C10.7821 15.8596 12.1745 15.8596 13.156 15.1064L13.1789 15.0836C13.2017 15.0607 13.2245 15.0607 13.2702 15.0836C13.2702 15.0836 13.293 15.0836 13.293 15.1064L14.343 15.677C14.9821 16.1336 15.3017 16.9325 15.1876 17.6857L14.4343 20.9499ZM21.4875 16.0879L20.7571 19.3749C20.6886 19.7172 20.3691 19.9683 20.0267 19.9683H15.5528C15.4158 19.9683 15.2789 19.9227 15.1419 19.8542L15.5984 17.777C15.7582 16.8183 15.3473 15.8596 14.5712 15.289C14.5712 15.289 14.5484 15.289 14.5484 15.2662L14.1832 15.0607C14.3202 14.6727 14.5941 14.3303 14.9365 14.0792L15.9865 13.5086C15.9865 13.5086 16.0093 13.5086 16.0093 13.4857C16.0321 13.4629 16.0778 13.4629 16.1006 13.4857C16.1006 13.4857 16.1234 13.4857 16.1234 13.5086C17.1049 14.3075 18.5202 14.3075 19.5017 13.5086C19.5017 13.5086 19.5245 13.5086 19.5245 13.4857C19.5473 13.4629 19.5702 13.4629 19.6158 13.4857C19.6158 13.4857 19.6386 13.4857 19.6386 13.5086L20.6886 14.0792C21.2821 14.5357 21.6245 15.3346 21.4875 16.0879Z" stroke="black" stroke-width="0.2"/>
<path d="M15.1875 9.87927C15.1875 11.3173 16.3516 12.4814 17.7897 12.4814C19.2277 12.4814 20.3918 11.3173 20.3918 9.87927C20.3918 8.44123 19.2277 7.2771 17.7897 7.2771C16.3516 7.2771 15.1875 8.44123 15.1875 9.87927ZM17.7897 7.73362C18.9766 7.73362 19.9353 8.69232 19.9353 9.87927C19.9353 11.0662 18.9766 12.0249 17.7897 12.0249C16.6027 12.0249 15.644 11.0662 15.644 9.87927C15.644 8.69232 16.6027 7.73362 17.7897 7.73362Z" fill="black" stroke="black" stroke-width="0.2"/>
<path d="M11.4664 8.85229C10.0284 8.85229 8.86426 10.0164 8.86426 11.4545C8.86426 12.8925 10.0284 14.0566 11.4664 14.0566C12.9045 14.0566 14.0686 12.8925 14.0686 11.4545C14.0686 10.0164 12.9045 8.85229 11.4664 8.85229ZM11.4664 13.6001C10.2795 13.6001 9.32078 12.6414 9.32078 11.4545C9.32078 10.2675 10.2795 9.30882 11.4664 9.30882C12.6534 9.30882 13.6121 10.2675 13.6121 11.4545C13.6121 12.6414 12.6534 13.6001 11.4664 13.6001Z" fill="black" stroke="black" stroke-width="0.2"/>
<path d="M7.85954 6.25C7.83672 6.79782 7.72259 6.9576 7.69976 6.98043C7.60846 7.02608 7.53998 7.11739 7.56281 7.20869C7.58563 7.32282 7.67694 7.41413 7.79107 7.41413C8.84107 7.41413 9.32041 6.91195 9.48019 6.66087C9.52585 6.66087 9.5715 6.66087 9.61715 6.66087C10.6443 6.66087 11.5802 6.27282 12.1737 5.63369C12.4019 5.79347 12.653 5.93043 12.9269 6.02174C13.2921 6.15869 13.6574 6.20434 14.0454 6.20434C14.2052 6.4326 14.5932 6.79782 15.415 6.79782C15.5291 6.79782 15.6204 6.70652 15.6432 6.59239C15.6432 6.50108 15.5976 6.40978 15.5063 6.36413C15.4835 6.3413 15.415 6.22717 15.3921 5.83913C16.1682 5.42826 16.6704 4.675 16.6704 3.87609C16.6704 2.59783 15.4606 1.57065 13.9541 1.57065C13.5889 1.57065 13.2465 1.63913 12.9041 1.75326C12.653 1.84456 12.4476 1.9587 12.2421 2.09565C11.6258 1.4337 10.6672 1 9.59432 1C7.74541 1 6.26172 2.27826 6.26172 3.83043C6.26172 4.81195 6.8552 5.725 7.85954 6.25ZM13.0639 2.20978C13.3378 2.11848 13.6574 2.05 13.9541 2.05C15.2095 2.05 16.2139 2.87174 16.2139 3.89891C16.2139 4.56087 15.7802 5.17717 15.0726 5.51956C15.0726 5.51956 15.0498 5.51956 15.0498 5.54239C15.0269 5.54239 15.0041 5.56521 15.0041 5.58804L14.9813 5.61087C14.9813 5.63369 14.9585 5.63369 14.9585 5.65652C14.9585 5.67934 14.9585 5.67934 14.9585 5.70217C14.9585 5.725 14.9585 5.725 14.9585 5.74782C14.9585 5.99891 14.9813 6.18152 15.0269 6.3413C14.5476 6.22717 14.4106 5.93043 14.3878 5.90761C14.3421 5.8163 14.2508 5.77065 14.1595 5.77065C13.7943 5.79347 13.4063 5.74782 13.0867 5.63369C12.8585 5.56521 12.653 5.45108 12.4704 5.31413C12.7671 4.88043 12.9498 4.37826 12.9498 3.85326C12.9498 3.35109 12.79 2.89456 12.5389 2.48369C12.6987 2.36956 12.8585 2.27826 13.0639 2.20978ZM9.59432 1.45652C11.1922 1.45652 12.4704 2.52935 12.4704 3.83043C12.4704 5.13152 11.1693 6.20434 9.59432 6.20434C9.50302 6.20434 9.43454 6.20434 9.34324 6.20434C9.25193 6.20434 9.16063 6.25 9.11498 6.3413C9.11498 6.36413 8.90954 6.79782 8.20193 6.93478C8.24759 6.75217 8.29324 6.47826 8.29324 6.11304C8.29324 6.02174 8.22476 5.93043 8.15628 5.90761C7.26607 5.47391 6.71824 4.69782 6.71824 3.85326C6.71824 2.52935 8.01933 1.45652 9.59432 1.45652Z" fill="black" stroke="black" stroke-width="0.2"/>
<path d="M7.86047 4.10426C7.8833 4.12709 7.90612 4.14991 7.92895 4.14991C7.95177 4.17274 7.9746 4.17274 8.02025 4.17274C8.06591 4.17274 8.08873 4.17274 8.11156 4.14991C8.13438 4.12709 8.15721 4.12709 8.18004 4.10426C8.22569 4.05861 8.24851 4.01296 8.24851 3.94448C8.24851 3.92165 8.24851 3.876 8.22569 3.85317C8.22569 3.83035 8.20286 3.80752 8.18004 3.7847C8.15721 3.76187 8.13438 3.73904 8.11156 3.73904C8.0659 3.71622 7.99743 3.71622 7.92895 3.73904C7.90612 3.73904 7.8833 3.76187 7.86047 3.7847C7.83764 3.80752 7.81482 3.83035 7.81482 3.85317C7.79199 3.876 7.79199 3.89883 7.79199 3.94448C7.79199 3.99013 7.79199 4.01296 7.81482 4.03578C7.81482 4.05861 7.83764 4.08143 7.86047 4.10426Z" fill="black" stroke="black" stroke-width="0.2"/>
<path d="M9.59545 4.17283C9.66393 4.17283 9.70958 4.15 9.75523 4.10435C9.80088 4.0587 9.82371 4.01305 9.82371 3.94457C9.82371 3.92174 9.82371 3.87609 9.80088 3.85326C9.80088 3.83044 9.77806 3.80761 9.75523 3.78479C9.66393 3.69348 9.52697 3.69348 9.43567 3.78479C9.41284 3.80761 9.39001 3.83044 9.39001 3.85326C9.36719 3.87609 9.36719 3.89892 9.36719 3.94457C9.36719 4.01305 9.39001 4.0587 9.43567 4.10435C9.48132 4.15 9.5498 4.17283 9.59545 4.17283Z" fill="black" stroke="black" stroke-width="0.2"/>
<path d="M11.1697 4.17283C11.2381 4.17283 11.2838 4.15 11.3294 4.10435C11.3751 4.0587 11.3979 4.01305 11.3979 3.94457C11.3979 3.87609 11.3751 3.83044 11.3294 3.78479C11.2381 3.69348 11.1012 3.69348 11.0099 3.78479C10.9642 3.83044 10.9414 3.87609 10.9414 3.94457C10.9414 4.01305 10.9642 4.0587 11.0099 4.10435C11.0555 4.15 11.1012 4.17283 11.1697 4.17283Z" fill="black" stroke="black" stroke-width="0.2"/>
</svg>
