<svg width="25" height="24" viewBox="0 0 25 24" fill="none" xmlns="http://www.w3.org/2000/svg">
<path d="M20.9902 3.51269L12.0955 8.60694L11.9026 8.71744L11.713 8.60403L3.19727 3.50977L3.58709 2.86816L11.9134 7.84901L20.6151 2.86523L20.9902 3.51269Z" fill="black"/>
<path d="M3.39265 2.81396H20.8031H21.1812V3.18897V12.4427V12.8177H20.8031H9.75083L9.92355 12.6463C10.0358 12.535 10.1296 12.4079 10.2053 12.2674C10.2401 12.2028 10.2704 12.1362 10.2962 12.0677H20.4251V3.56399H3.77071V12.0677H4.12556C4.1751 12.3164 4.24106 12.5668 4.32138 12.8177H3.39268H3.01465V12.4427V3.18898V2.81397L3.39265 2.81396Z" fill="black"/>
<path d="M18.4672 18.352C18.489 18.5182 18.4736 18.6757 18.4211 18.8243C18.3686 18.9732 18.2826 19.1069 18.1633 19.2253L16.299 21.0592C16.239 21.1253 16.1708 21.1857 16.0945 21.2404C16.0222 21.2923 15.9413 21.3397 15.8518 21.3826C15.7644 21.4244 15.68 21.4581 15.5987 21.4836C15.5138 21.5102 15.4271 21.5297 15.3389 21.5422L15.2883 21.5464C15.2889 21.5464 15.2888 21.5464 15.2883 21.5464C15.2384 21.5506 15.2542 21.5491 15.2379 21.5507C15.2084 21.5537 15.1735 21.556 15.1332 21.5575C15.0772 21.5596 15.0388 21.5607 15.0176 21.5607C12.9347 21.5607 10.585 20.2222 8.63055 18.4083C6.47471 16.4074 4.78144 13.8081 4.45823 11.7894C4.4377 11.6612 4.42212 11.5429 4.41148 11.4346C4.40075 11.3252 4.39526 11.2244 4.39503 11.1324L4.39355 11.1213C4.39361 11.099 4.39533 11.0814 4.39569 11.0683C4.39648 11.0406 4.39708 11.0231 4.39739 11.0174C4.40314 10.9138 4.40671 10.8487 4.40793 10.8244C4.40928 10.7973 4.40998 10.7754 4.40998 10.758L4.41441 10.7053C4.42701 10.6177 4.44676 10.5318 4.47357 10.4475C4.49923 10.3669 4.53319 10.2832 4.57539 10.1965C4.61857 10.1077 4.66636 10.0274 4.71868 9.95567C4.77011 9.88517 4.82648 9.82167 4.88774 9.76519L6.76423 7.90349C6.86231 7.80619 6.97179 7.73128 7.09253 7.67889C7.2173 7.62474 7.34749 7.59766 7.48303 7.59766C7.58566 7.59764 7.68223 7.61373 7.77256 7.64293C7.86497 7.6728 7.95196 7.71811 8.03342 7.77878C8.1011 7.82915 8.16185 7.8834 8.21563 7.94145C8.26869 7.99873 8.31843 8.06356 8.36485 8.13591L8.38109 8.16227L9.88621 10.9949C9.95133 11.1098 9.99335 11.2313 10.0118 11.3596C10.0298 11.4842 10.0248 11.6123 9.99684 11.744C9.97022 11.8695 9.92902 11.9844 9.87325 12.0886C9.81664 12.1942 9.74367 12.2914 9.65433 12.3801L9.01622 13.0146C9.03029 13.0678 9.04841 13.1236 9.07049 13.1821C9.10632 13.2768 9.15452 13.3821 9.21506 13.4979L9.21654 13.5023C9.49327 14.0514 10.0369 14.7309 10.6596 15.3499C11.2756 15.9622 11.9593 16.5053 12.5286 16.7938C12.6341 16.8472 12.722 16.8865 12.791 16.9141C12.8514 16.9382 12.901 16.9542 12.9397 16.9618L13.0124 16.9762L13.7611 16.2205L13.7788 16.2029C13.8983 16.0977 14.0289 16.0182 14.1707 15.9646C14.3134 15.9107 14.4639 15.8837 14.6225 15.8837C14.7255 15.8837 14.8244 15.8941 14.9188 15.9149C15.0161 15.9364 15.1034 15.9689 15.1806 16.0125L15.2096 16.0204L17.9327 17.6161L17.9386 17.6205C18.0787 17.7065 18.192 17.8061 18.2783 17.9193C18.3721 18.0421 18.4341 18.1781 18.4642 18.3271L18.4672 18.352ZM17.7094 18.5782C17.7208 18.5459 17.725 18.5097 17.7221 18.4699C17.7143 18.4337 17.6988 18.4005 17.6759 18.3704C17.6458 18.3311 17.6035 18.2943 17.5491 18.2601L14.8352 16.6706L14.81 16.6635C14.7971 16.6558 14.7792 16.6495 14.7564 16.6444C14.7239 16.6373 14.6793 16.6337 14.6225 16.6337C14.5553 16.6337 14.4943 16.6441 14.4394 16.6648C14.3846 16.6855 14.3326 16.7174 14.2833 16.7604L13.4944 17.5567C13.4581 17.5928 13.4147 17.625 13.3673 17.6504C13.3359 17.6671 13.2975 17.683 13.252 17.698C13.2145 17.7104 13.1849 17.719 13.1634 17.724C13.1183 17.7343 13.0779 17.7395 13.0421 17.7395L12.9683 17.7321L12.792 17.6972C12.7132 17.6816 12.6194 17.652 12.5104 17.6085C12.4101 17.5684 12.3021 17.5191 12.1866 17.4606C11.5442 17.1351 10.7914 16.5396 10.1251 15.8772C9.45349 15.2097 8.85963 14.4622 8.54526 13.8404C8.47407 13.7043 8.41346 13.5719 8.36465 13.4428C8.31433 13.3097 8.27784 13.1842 8.25524 13.0663L8.24784 12.9975C8.24784 12.9591 8.2521 12.919 8.26054 12.8771C8.26552 12.8523 8.27529 12.8183 8.2897 12.7753C8.30478 12.7303 8.32082 12.6922 8.33766 12.6612C8.36298 12.6145 8.39355 12.5734 8.42919 12.5378L9.12051 11.8506C9.15316 11.8182 9.1826 11.7803 9.20581 11.737C9.22996 11.6919 9.24754 11.6434 9.25852 11.5916C9.26818 11.5461 9.27021 11.5039 9.26463 11.4651C9.25959 11.4301 9.24732 11.3954 9.22781 11.361L9.22339 11.3522L7.7189 8.52079C7.70192 8.49622 7.6824 8.47204 7.66039 8.44829C7.63425 8.42005 7.60793 8.39608 7.58155 8.37644C7.56907 8.36715 7.55494 8.35993 7.53924 8.35486C7.52142 8.34911 7.50264 8.34621 7.48303 8.34621C7.44928 8.34621 7.41951 8.35327 7.39377 8.36444C7.36404 8.37734 7.33235 8.40047 7.29878 8.43377L5.42219 10.2954L5.40743 10.3085C5.38026 10.3328 5.35445 10.3617 5.33003 10.3951C5.30242 10.433 5.27727 10.4752 5.25466 10.5217C5.23098 10.5703 5.2108 10.6208 5.19417 10.6731C5.18075 10.7153 5.17079 10.7554 5.16434 10.7933L5.16104 10.8596C5.15756 10.9286 5.15406 10.9942 5.1505 11.0585L5.1488 11.0889C5.14839 11.1035 5.14816 11.1144 5.14814 11.1213L5.14962 11.1324C5.14978 11.197 5.15282 11.2743 5.16164 11.3643C5.17058 11.4555 5.18421 11.5581 5.20246 11.6722C5.5005 13.5336 7.10071 15.9665 9.14443 17.8634C10.9717 19.5593 13.1386 20.8107 15.0176 20.8107C15.0717 20.8107 15.1016 20.8106 15.1066 20.8104C15.1275 20.8096 15.1467 20.8083 15.1641 20.8066C15.2273 20.8003 15.2047 20.8016 15.2264 20.7998C15.2359 20.7991 15.2445 20.7984 15.2524 20.7979C15.29 20.7915 15.3296 20.7818 15.3713 20.7687C15.424 20.7522 15.475 20.7322 15.5239 20.7087C15.5708 20.6863 15.6133 20.6614 15.6515 20.634C15.6853 20.6097 15.7145 20.5841 15.7388 20.5572L15.7536 20.5425L17.6294 18.6958C17.6699 18.6557 17.6961 18.6159 17.7094 18.5782ZM15.2883 21.5464C15.2889 21.5464 15.2888 21.5464 15.2883 21.5464Z" fill="black"/>
</svg>
