<svg width="40" height="40" viewBox="0 0 40 40" fill="none" xmlns="http://www.w3.org/2000/svg">
<g filter="url(#filter0_d_477_69)">
<path d="M31.5199 0.879883H8.47988C6.49268 0.879883 4.87988 2.49268 4.87988 4.47988V27.5199C4.87988 29.5071 6.49268 31.1199 8.47988 31.1199H31.5199C33.5071 31.1199 35.1199 29.5071 35.1199 27.5199V4.47988C35.1199 2.49268 33.5071 0.879883 31.5199 0.879883ZM28.6399 11.6799H27.1999C25.6591 11.6799 25.0399 12.0399 25.0399 13.1199V15.2799H28.6399L27.9199 18.8799H25.0399V29.6799H21.4399V18.8799H18.5599V15.2799H21.4399V13.1199C21.4399 10.2399 22.8799 8.07988 25.7599 8.07988C27.8479 8.07988 28.6399 8.79988 28.6399 8.79988V11.6799Z" fill="#163853"/>
</g>
<defs>
<filter id="filter0_d_477_69" x="0.879883" y="0.879883" width="38.2402" height="38.2402" filterUnits="userSpaceOnUse" color-interpolation-filters="sRGB">
<feFlood flood-opacity="0" result="BackgroundImageFix"/>
<feColorMatrix in="SourceAlpha" type="matrix" values="0 0 0 0 0 0 0 0 0 0 0 0 0 0 0 0 0 0 127 0" result="hardAlpha"/>
<feOffset dy="4"/>
<feGaussianBlur stdDeviation="2"/>
<feComposite in2="hardAlpha" operator="out"/>
<feColorMatrix type="matrix" values="0 0 0 0 0 0 0 0 0 0 0 0 0 0 0 0 0 0 0.25 0"/>
<feBlend mode="normal" in2="BackgroundImageFix" result="effect1_dropShadow_477_69"/>
<feBlend mode="normal" in="SourceGraphic" in2="effect1_dropShadow_477_69" result="shape"/>
</filter>
</defs>
</svg>
