<svg width="21" height="32" viewBox="0 0 21 32" fill="none" xmlns="http://www.w3.org/2000/svg">
<path d="M0.434741 31.0931H4.16471L3.47795 21.6163H2.78488C2.53915 21.6163 2.34383 21.4155 2.34383 21.1628V18.2349C2.34383 17.9823 2.53915 17.7815 2.78488 17.7815H10.0558V13.0333C9.76598 13.0916 9.46985 13.1175 9.16742 13.1175C8.29793 13.1175 7.44734 12.8714 6.70387 12.3985C5.52565 11.6471 4.73177 10.4099 4.52385 9.00421C4.49235 8.78397 4.61836 8.57668 4.82628 8.50543C5.29883 8.34996 5.79028 8.26575 6.28803 8.26575C7.15752 8.26575 8.0081 8.51838 8.75787 8.98477C9.26823 9.30866 9.70927 9.72971 10.0621 10.2155V7.33296C9.12331 6.38722 8.61296 5.09168 8.65077 3.73785C8.68857 2.31276 9.33753 0.984829 10.4212 0.0973861C10.5914 -0.0386453 10.8308 -0.0321676 10.9883 0.116819C12.0216 1.06904 12.5887 2.43583 12.5446 3.86092C12.5068 5.20828 11.9271 6.47143 10.9442 7.3524V14.0374C11.297 13.5515 11.7381 13.1305 12.2484 12.8066C12.9919 12.3337 13.8425 12.0876 14.7183 12.0876C15.216 12.0876 15.7075 12.1653 16.18 12.3273C16.3879 12.3985 16.514 12.6058 16.4824 12.826C16.2745 14.2382 15.4806 15.4754 14.3024 16.2204C13.559 16.6932 12.7084 16.9459 11.8389 16.9459C11.5428 16.9459 11.2466 16.9135 10.9505 16.8616V17.7944H18.2088C18.4545 17.7944 18.6499 17.9952 18.6499 18.2479V21.1758C18.6499 21.4284 18.4545 21.6292 18.2088 21.6292H17.5158L16.829 31.0931H20.559C20.8047 31.0931 21 31.2939 21 31.5466C21 31.7992 20.8047 32 20.559 32H16.3564H4.64356H0.441044C0.195319 32 -4.22228e-07 31.7992 -4.22228e-07 31.5466C-4.22228e-07 31.2939 0.195317 31.0931 0.434741 31.0931ZM8.29163 9.7621C7.68677 9.37991 6.9937 9.17263 6.28803 9.17263C6.0171 9.17263 5.74617 9.20502 5.48155 9.26331C5.72727 10.2414 6.33213 11.09 7.17642 11.6277C7.78128 12.0099 8.47435 12.2107 9.18002 12.2107C9.45725 12.2107 9.72817 12.1783 9.9928 12.12C9.73447 11.1483 9.13591 10.2997 8.29163 9.7621ZM11.82 16.0325C12.5257 16.0325 13.2187 15.8317 13.8236 15.443C14.6679 14.9054 15.2727 14.0568 15.5185 13.0787C15.2538 13.0204 14.9829 12.988 14.712 12.988C14.0063 12.988 13.3132 13.1888 12.7084 13.5775C11.8641 14.1151 11.2592 14.9637 11.0135 15.9418C11.2781 16.0066 11.5491 16.0325 11.82 16.0325ZM11.6562 3.82853C11.6877 2.80506 11.3285 1.82045 10.667 1.06904C9.9676 1.77511 9.55176 2.74028 9.52655 3.76376C9.49505 4.78723 9.85419 5.77184 10.5158 6.51678C11.2151 5.81718 11.631 4.85201 11.6562 3.82853ZM17.7678 18.6948H3.22592V20.7159H3.88749H17.1062H17.7678V18.6948ZM15.9406 31.0931L16.4005 24.7839H7.10081C6.85509 24.7839 6.65977 24.583 6.65977 24.3304C6.65977 24.0778 6.85509 23.877 7.10081 23.877H16.4698L16.6337 21.6227H4.36634L5.0468 31.0931H15.9406Z" fill="black"/>
</svg>
