<svg width="135" height="25" viewBox="0 0 135 25" fill="none" xmlns="http://www.w3.org/2000/svg">
<path d="M13.5004 0L16.5313 9.32827H26.3397L18.4046 15.0935L21.4355 24.4217L13.5004 18.6565L5.56529 24.4217L8.59623 15.0935L0.661133 9.32827H10.4695L13.5004 0Z" fill="#FEC931"/>
<path d="M40.5004 0L43.5313 9.32827H53.3397L45.4046 15.0935L48.4355 24.4217L40.5004 18.6565L32.5653 24.4217L35.5962 15.0935L27.6611 9.32827H37.4695L40.5004 0Z" fill="#FEC931"/>
<path d="M67.5004 0L70.5313 9.32827H80.3397L72.4046 15.0935L75.4355 24.4217L67.5004 18.6565L59.5653 24.4217L62.5962 15.0935L54.6611 9.32827H64.4695L67.5004 0Z" fill="#FEC931"/>
<path d="M94.5004 0L97.5313 9.32827H107.34L99.4046 15.0935L102.435 24.4217L94.5004 18.6565L86.5653 24.4217L89.5962 15.0935L81.6611 9.32827H91.4695L94.5004 0Z" fill="#FEC931"/>
<path d="M121.5 0L124.531 9.32827H134.34L126.405 15.0935L129.436 24.4217L121.5 18.6565L113.565 24.4217L116.596 15.0935L108.661 9.32827H118.469L121.5 0Z" fill="#FEC931"/>
</svg>
