<svg width="24" height="24" viewBox="0 0 24 24" fill="none" xmlns="http://www.w3.org/2000/svg">
<path d="M16.0765 2.82353V2.97353H16.2265C17.0887 2.97353 17.7875 2.27425 17.7875 1.41176V1.26176H17.6375C16.7753 1.26176 16.0765 1.96105 16.0765 2.82353ZM14.8155 2.82353H14.9655C14.9655 1.34693 16.1619 0.15 17.6375 0.15H18.8985V1.41176C18.8985 2.88836 17.7021 4.08529 16.2265 4.08529H15.521H15.371V4.23529V7.09369V7.22953L15.5062 7.24296C18.6313 7.5534 21.144 9.94918 21.6338 13.0199L21.6559 13.1582L21.7954 13.1457C22.1874 13.1104 22.5895 13.1978 22.9416 13.4113L23.0082 13.3013L22.9416 13.4113C24.0286 14.0704 24.1657 15.5949 23.2139 16.4377L17.0159 21.9256C16.6429 22.2559 16.162 22.4382 15.6639 22.4382H4.9385H4.7885V22.5882V23.85H0.15V12.8559H4.7885V13.7647V13.9147H4.9385H7.76918H7.91198L7.919 13.7721C8.08755 10.3475 10.7486 7.57835 14.1248 7.24296L14.26 7.22953V7.09369V4.23529V4.08529H14.11H13.4045C11.9289 4.08529 10.7325 2.88836 10.7325 1.41176V0.15H11.9935C13.4691 0.15 14.6655 1.34693 14.6655 2.82353H14.8155ZM9.47921 11.8556L9.71283 12.0298C10.711 11.2055 11.9767 10.7382 13.3043 10.7382H14.11C15.196 10.7382 16.0765 11.6191 16.0765 12.7059V12.7843C16.0765 13.8278 15.2311 14.6735 14.1884 14.6735H13.4045C12.5423 14.6735 11.8435 15.3728 11.8435 16.2353C11.8435 17.0978 12.5423 17.7971 13.4045 17.7971H15.279H15.3304L15.3711 17.7654L20.531 13.75L20.5953 13.7L20.5884 13.6188C20.3355 10.6507 17.8476 8.32059 14.8155 8.32059C12.4175 8.32059 10.36 9.7782 9.47921 11.8556ZM9.53496 13.8683L9.53495 13.8683L8.92823 14.779C8.82516 14.9336 8.65173 15.0265 8.46601 15.0265H4.9385H4.7885V15.1765V21.1765V21.3265H4.9385H15.6639C15.8908 21.3265 16.1098 21.2434 16.2797 21.093L16.2797 21.093L22.4776 15.6052C22.8687 15.259 22.8123 14.6328 22.3658 14.3621C22.0911 14.1955 21.7422 14.2158 21.4886 14.4131L15.862 18.7918C15.7645 18.8676 15.6445 18.9088 15.521 18.9088H13.4045C11.9289 18.9088 10.7325 17.7119 10.7325 16.2353C10.7325 14.7587 11.9289 13.5618 13.4045 13.5618H14.1884C14.6176 13.5618 14.9655 13.2136 14.9655 12.7843V12.7059C14.9655 12.2333 14.5826 11.85 14.11 11.85H13.3043C11.7895 11.85 10.3751 12.6074 9.53496 13.8683ZM1.261 22.5882V22.7382H1.411H3.5275H3.6775V22.5882V14.1176V13.9676H3.5275H1.411H1.261V14.1176V22.5882ZM13.4045 2.97353H13.5545V2.82353C13.5545 1.96105 12.8557 1.26176 11.9935 1.26176H11.8435V1.41176C11.8435 2.27425 12.5423 2.97353 13.4045 2.97353Z" fill="black" stroke="#DED9C5" stroke-width="0.3"/>
</svg>
